<svg xmlns="http://www.w3.org/2000/svg" viewBox="0 0 2067.63 1547.52"><defs><style>.cls-1{fill:#e8e8f7;}.cls-2{fill:#8a6bff;}.cls-3{fill:#292f52;}.cls-4{fill:#cfd2d3;}.cls-5{fill:#e5e7e8;}.cls-6{fill:#3e4463;}.cls-7{fill:#d8d8e6;}.cls-8{fill:#8a3eff;}.cls-9{fill:#e6e8e8;}.cls-10{fill:#a2a9ad;}.cls-11{fill:#ffa993;}.cls-12{fill:#ff7d71;}.cls-13{fill:#ffb29e;}.cls-14{fill:#ff7167;}</style></defs><g id="Camada_2" data-name="Camada 2"><g id="Layer_1" data-name="Layer 1"><path class="cls-1" d="M246.68,1102.4c137.28,329.54,326.91,153.64,568,46.15,139.65-62.27,240.26-66,382.83-13.24,162.24,60,348.51,110.57,493.44-30,326.45-316.71,13.32-978.58-376.35-900.45-132,26.46-232.77,151.21-361.75,176C827.43,405,723.09,271.56,617.23,214.71c-187.14-100.49-331,42.59-399.3,249.83C146.31,681.77,165.31,895.34,246.68,1102.4Z"/><path class="cls-2" d="M2067.63,207.9V609.2a41.7,41.7,0,0,1-41.58,41.58H1587.44a41.7,41.7,0,0,1-41.58-41.58V207.9a41.7,41.7,0,0,1,41.58-41.58h438.61A41.7,41.7,0,0,1,2067.63,207.9Z"/><path class="cls-3" d="M2067.63,207.9V254H1545.86V207.9a41.7,41.7,0,0,1,41.58-41.58h438.61A41.7,41.7,0,0,1,2067.63,207.9Z"/><path class="cls-2" d="M2005.27,210a14.55,14.55,0,1,0,14.55-14.55A14.54,14.54,0,0,0,2005.27,210Z"/><path class="cls-2" d="M1950.7,210a14.55,14.55,0,1,0,14.55-14.55A14.54,14.54,0,0,0,1950.7,210Z"/><path class="cls-4" d="M1771.76,210c0,8-9,14.55-20,14.55H1598.43c-11,0-20-6.54-20-14.55s9-14.55,20-14.55h153.33C1762.76,195.4,1771.76,202,1771.76,210Z"/><path class="cls-5" d="M1895.79,322.79H1606.15a10.4,10.4,0,1,1,0-20.79h289.64a10.4,10.4,0,0,1,0,20.79Z"/><path class="cls-5" d="M1836.2,371.05H1661.58a10.4,10.4,0,0,1,0-20.79H1836.2a10.4,10.4,0,0,1,0,20.79Z"/><path class="cls-5" d="M1940.13,419.31H1661.58a10.4,10.4,0,0,1,0-20.79h278.55a10.4,10.4,0,0,1,0,20.79Z"/><path class="cls-5" d="M1895.79,467.57h-158a10.39,10.39,0,1,1,0-20.78h158a10.39,10.39,0,1,1,0,20.78Z"/><path class="cls-5" d="M1988.64,515.83H1661.58a10.39,10.39,0,1,1,0-20.78h327.06a10.39,10.39,0,0,1,0,20.78Z"/><path class="cls-5" d="M1748.89,564.1H1606.15a10.4,10.4,0,1,1,0-20.79h142.74a10.4,10.4,0,0,1,0,20.79Z"/><path class="cls-5" d="M1895.79,612.35H1661.58a10.39,10.39,0,1,1,0-20.78h234.21a10.39,10.39,0,1,1,0,20.78Z"/><path class="cls-6" d="M317.15,622.93a137.75,137.75,0,0,0-.95-16.45l30.9-17.85A176.58,176.58,0,0,0,290,489.83l-30.85,17.8a138.67,138.67,0,0,0-28.45-16.45V455.53a177.53,177.53,0,0,0-114.15,0v35.7a138.67,138.67,0,0,0-28.45,16.45l-30.9-17.85A176.88,176.88,0,0,0,0,588.63l31,17.9a142,142,0,0,0,0,32.8L.05,657.18A176,176,0,0,0,57.2,756l30.85-17.8a143.4,143.4,0,0,0,28.45,16.45v35.65a177.53,177.53,0,0,0,114.15-.05v-35.6a143.4,143.4,0,0,0,28.45-16.45L290,756a176.36,176.36,0,0,0,57.1-98.85L316.2,639.33A136.31,136.31,0,0,0,317.15,622.93Zm-60.5,17.9a84.93,84.93,0,0,1-140.15,45.1,85.21,85.21,0,0,1-26.1-45.1,87.64,87.64,0,0,1-1.85-17.9,85,85,0,1,1,168.1,17.9Z"/><rect class="cls-2" x="340.35" y="74.43" width="299.98" height="162.25" rx="40"/><path class="cls-5" d="M548.84,208.68a10,10,0,0,1-7.23-16.91l34.64-36.22-34.64-36.21a10,10,0,1,1,14.45-13.82l41.25,43.12a10,10,0,0,1,0,13.82l-41.25,43.13A10,10,0,0,1,548.84,208.68Z"/><path class="cls-5" d="M431.86,208.68a10,10,0,0,1-7.23-3.09l-41.25-43.13a10,10,0,0,1,0-13.82l41.25-43.12a10,10,0,1,1,14.45,13.82l-34.64,36.21,34.64,36.22a10,10,0,0,1-7.22,16.91Z"/><path class="cls-5" d="M474.09,208.68a10.12,10.12,0,0,1-3.52-.64,10,10,0,0,1-5.83-12.89l32.5-86.25A10,10,0,1,1,516,116l-32.5,86.25A10,10,0,0,1,474.09,208.68Z"/><path class="cls-7" d="M1639.72,1247.42c0,91.7-261.29,300.1-583.6,300.1s-583.6-208.4-583.6-300.09,261.28-166,583.6-166S1639.72,1155.73,1639.72,1247.42Z"/></g><g id="Layer_2" data-name="Layer 2"><path class="cls-3" d="M1368.22,995c40.08,3,237.43,67,242.43,122s-415,297.5-599.06,295-535.94-230-523.44-284.16S633.74,1001.35,715.65,995C818.15,987,1368.22,995,1368.22,995Z"/><path class="cls-3" d="M1001.48,1292.77c27.92,6.76,76.67,44.26,94.17,54.26s93.75,56.25,100,76.25,5,78.75-37.5,96.25-185-31.25-203.75-48.75C933.15,1332,1001.48,1292.77,1001.48,1292.77Z"/><path class="cls-6" d="M487.82,1122c-14.34,21.25-18.42,106.25.33,136.25s221.25,165,455,212.5c-7.5-35,74.45-138,91.12-156.24C863.43,1230.47,618.15,1088.28,487.82,1122Z"/><path class="cls-3" d="M1019,1332.87c-107.08-12.09-243.56,51.66-253.45,91.66s-1.13,87.5,23.87,111.25,189.58,13.76,272.92-51.24C1079.4,1417,1019,1332.87,1019,1332.87Z"/><path class="cls-8" d="M1017.42,1352.16c-44.69-1.79-131.77,21.12-156.77,43.62,15,38.75,26.25,95,13.75,113.75,50,8.75,147.22-16.25,174.86-38.75C1051.9,1434.53,1017.42,1352.16,1017.42,1352.16Z"/><path class="cls-6" d="M1610.65,1117c19.19,32.51,30,117.51,0,147.51s-350,191.67-548.33,220c-30-28.34-51.67-135-43.34-151.67C1152.32,1231.2,1454,1097.86,1610.65,1117Z"/><path class="cls-8" d="M1350.69,862.84c5.32,67.34-28.75,75-52.5,91.25s-16.25,65-7.5,147.5c-53.75,42.5-345,106.25-506.25,20,3.75-23.75,6.25-88.75,2.5-117.5s-17.5-45-66.25-73.75,2.5-337.5,23.75-363.75,152.5-108.74,221.25-118.74c0,0,105-6.25,147.5,0s196.25,78.75,237.5,126.24S1346.94,815.34,1350.69,862.84Z"/><path class="cls-2" d="M1204,1127.87c6.67-1.67,146.67-25,208.34-70,86.44-63.08-26.74-441.62-55.71-474.85,0,0-22.17-36.42-85.31-66.56-48.11,28.89-36.64,161.79-33.11,188.88,10.79,82.53,44.91,196.3,52.46,222.53-18.33,20-106.67,60-106.67,60Z"/><path class="cls-2" d="M884,1136.2s-60,2.79-116.66-16.67c-203.93-70-104.13-460.44-22.88-552.94,0,0,27.34-29.43,63.27-47.75,29.52,12.24,53.3,90.06,35.9,179C827.32,781.2,804,942.86,804,959.53c18.34,13.34,71.67,40,71.67,40Z"/><path class="cls-4" d="M1318.9,1179.53H759.06L734.81,827.59c145.13-22.85,487.07-22.85,608.34,0Z"/><path class="cls-9" d="M1076.48,995a37.5,37.5,0,1,1-37.5-37.5A37.5,37.5,0,0,1,1076.48,995Z"/><polygon class="cls-10" points="1318.9 1179.53 1318.9 1208.7 758.67 1208.7 759.06 1179.53 1318.9 1179.53"/><path class="cls-11" d="M1126.11,375.35c-2.16,22.5-4.17,78.33,10,98.33-54.17,47.5-158.33,38.33-192.5,5.83,7.5-26.66,7.5-81.66,0-99.16s88.33-30.84,88.33-30.84Z"/><path class="cls-3" d="M865.8,237.88C799.06,79.5,898.61,74.51,898.61,74.51c21.67-72.78,156.59-84,201.66-68.33,74.17,25.83,125.34,104.91,91.5,226.28,0,0-41.7,182-142.33,181.64C948.5,413.79,865.8,237.88,865.8,237.88Z"/><path class="cls-11" d="M1211.93,274.93c0,38.56-34.43,49.58-55.83,49.58s-15.2-34.43-15.2-56.06,3-43.1,24.37-43.1S1211.93,235.35,1211.93,274.93Z"/><path class="cls-11" d="M843.61,282.05c0,38.56,34.43,49.58,55.83,49.58s15.21-34.43,15.21-56.06-3-43.11-24.37-43.11S843.61,242.46,843.61,282.05Z"/><path class="cls-12" d="M1074.54,445.07c-39.27,17.78-99.18,15.55-125.89,0,.51-12.24.8-27.66,0-36.52C980.28,418.68,1074.54,445.07,1074.54,445.07Z"/><path class="cls-13" d="M881.11,243.68c0,120,60,204.17,168.33,204.17s133.33-141.67,133.33-204.17-100.83-134.17-155-134.17C896.11,109.51,881.11,243.68,881.11,243.68Z"/><path class="cls-12" d="M881.11,274.93c44.17-27.92,55.79-73.83,65.83-79.58,58.13-33.34,98.44,25.27,180-3.34,0,0,16.67,51.41,55.83,67.17,1.83-33.13-40.35-89.71-65.17-112.19s-169-47.33-195.68,6.76S881.11,274.93,881.11,274.93Z"/><path class="cls-3" d="M881.11,274.93c32.5-21.25,48.33-68.75,50.83-87.08,73.33-54.17,128.33,15.83,200.83-5,5.84,26.66,32.5,66,50,76.33,3.23-21,14.68-55.57,5.52-78.9S1168.05,74.51,1023.75,70.35,857.78,158.68,861.11,187,881.11,274.93,881.11,274.93Z"/><ellipse class="cls-3" cx="1088.82" cy="282.53" rx="9.37" ry="15.94"/><ellipse class="cls-3" cx="986.63" cy="282.53" rx="9.37" ry="15.94"/><path class="cls-14" d="M1076.06,224.91l.17-.62a11.36,11.36,0,0,1,.61-1.7,16.47,16.47,0,0,1,3.25-4.81,13.37,13.37,0,0,1,2.78-2.42,19,19,0,0,1,3.48-2.09,21,21,0,0,1,4.13-1.35,21.35,21.35,0,0,1,4.47-.53,20.22,20.22,0,0,1,4.53.41,18,18,0,0,1,4.26,1.3,16.61,16.61,0,0,1,3.64,2.09,11.68,11.68,0,0,1,2.84,2.51,14.41,14.41,0,0,1,3.14,4.94,13,13,0,0,1,.71,2.28l.08.39a.43.43,0,0,1-.33.5.57.57,0,0,1-.26,0l-1.51-.71a35.69,35.69,0,0,0-4-1.66,17.89,17.89,0,0,0-2.76-.88,23.91,23.91,0,0,0-3.15-.69,32.75,32.75,0,0,0-7-.46,40,40,0,0,0-12.95,2.19,39,39,0,0,0-5.6,2.21.43.43,0,0,1-.57-.18.36.36,0,0,1,0-.3Z"/><path class="cls-14" d="M962.35,224.9a11.71,11.71,0,0,1,.73-2.19,16.63,16.63,0,0,1,2.83-4.52,13.65,13.65,0,0,1,2.38-2.29,16,16,0,0,1,3-2,19.29,19.29,0,0,1,15.81-.9,16.64,16.64,0,0,1,6.39,4.54,14.09,14.09,0,0,1,1.77,2.72,9.81,9.81,0,0,1,.81,2.44,10,10,0,0,1,.26,2.28v.42a.42.42,0,0,1-.44.4.4.4,0,0,1-.21-.07l-1.23-.8a19.44,19.44,0,0,0-3.4-1.78,22.84,22.84,0,0,0-5.24-1.35,28.92,28.92,0,0,0-6.25-.06A47.08,47.08,0,0,0,967.92,224c-3.12,1-5.13,1.78-5.13,1.78a.38.38,0,0,1-.51-.21.34.34,0,0,1,0-.22Z"/><path class="cls-14" d="M1056,319s.24.71.64,1.94,1.1,2.9,1.87,5a94.62,94.62,0,0,1,5,15.88,22.13,22.13,0,0,1,0,9.72,8.64,8.64,0,0,1-2.73,4.42,8.43,8.43,0,0,1-4.15,1.85,15.86,15.86,0,0,1-5.94-.39c-1.32-.38-2-.64-2-.64a.8.8,0,0,1,.23-1.55h.06s.75,0,2,0a16,16,0,0,0,4.84-.79,4.73,4.73,0,0,0,3.31-4,22.59,22.59,0,0,0-.47-7.7c-1.1-5.58-2.79-11.34-3.57-15.83a44.16,44.16,0,0,1-.67-5.56,11.3,11.3,0,0,1,0-2.12v-.07A.8.8,0,0,1,1056,319Z"/><path class="cls-14" d="M1006,380.93s1.26.52,3.41,1.53a24.46,24.46,0,0,0,3.77,1.5,44.36,44.36,0,0,0,4.84,1.54c1.8.56,3.79,1,5.91,1.44s4.4.69,6.69,1.13c2.35.26,4.78.49,7.25.68s5,.24,7.52.2c2.53.12,5.06-.12,7.55-.2,2.46-.28,4.95-.28,7.27-.7s4.63-.6,6.75-1.07,4.08-1,6-1.33c1.77-.59,3.47-1,4.91-1.55s2.7-1,3.69-1.49c1.92-1,3.13-1.57,3.13-1.57l.23-.11a1.59,1.59,0,0,1,1.88,2.47s-.92,1.06-2.7,2.91a41.08,41.08,0,0,1-8.57,5.86,55,55,0,0,1-6.33,2.69,51.36,51.36,0,0,1-7.33,2.15c-2.57.67-5.27,1-8,1.44-2.77.18-5.57.51-8.39.47a71.34,71.34,0,0,1-8.41-.42,68.43,68.43,0,0,1-8.06-1.34,52.74,52.74,0,0,1-7.36-2.22l-3.32-1.28-3-1.54a30.18,30.18,0,0,1-5-3.12,20.65,20.65,0,0,1-3.45-2.81c-1.69-1.67-2.62-2.68-2.62-2.68a1.61,1.61,0,0,1,.1-2.28A1.63,1.63,0,0,1,1006,380.93Z"/></g></g></svg>